<svg xmlns="http://www.w3.org/2000/svg" viewBox="5 0 136 96">
    <style>
      path:not(:target) {display:none;}
      #UX {fill: #ee7800;}
      #BX {fill: #71bce9;}
      #CX {fill: #e4007f;}
    </style>
    <path id="UX" d="M120.194,236.971h-19.42l22.679,39.309,9.711-16.83Zm21.123,70.271,13.672,23.7H174.41l-23.382-40.526Zm12.97-70.271-54.216,93.967h19.421l54.216-93.967H154.287Zm-97.4,77.053-4.942-7.063v-69.99h-16.9v75.174h0v0.15l13.045,18.643h6.626l9.759-16.914H56.887Zm24.557-77.053v69.99L76.5,314.024H72.626l-9.759,16.914H85.3L98.346,312.3v-0.15h0V236.971h-16.9Z" transform="translate(-31 -236)"/>
    <path id="BX" d="M356.865,236.876H337.132l23.045,39.294,9.866-16.824Zm21.463,70.244,13.891,23.687h19.734L388.194,290.3Zm13.178-70.244-55.088,93.931h19.733l55.088-93.931H391.506Zm-52.418,16.3-16.48-16.224H276.187v93.932h15.2l9.916-16.907h-7.939V292.37h20.146l11.966,11.779-9.981,9.826h-5.907l-9.916,16.907h22.938l16.48-16.224V293.641l-9.341-9.2,9.341-9.195V253.174Zm-24.5,22.288H293.362v-21.6h22.131l10.518,10.354Z" transform="translate(-271 -236)"/>
    <path id="CX" d="M86.372,0.112H66.661L89.68,40.038l9.856-17.094Zm21.44,71.373,13.876,24.068H141.4L117.667,54.391ZM120.976,0.112L65.948,95.553H85.66L140.687,0.112H120.976ZM28.168,78.374l-6.412-6.421V23.713l6.412-6.421h16.4l6.412,6.42V38.289H68.14V16.6L51.679,0.112H21.062L4.6,16.6V79.068L21.062,95.553h2.751l9.905-17.179h-5.55Zm22.817-21V71.953l-6.412,6.42H41.993L32.088,95.553h19.59L68.141,79.069V57.377Z"/>
    <symbol id="expand" viewBox="0 0 82 82">
      <path d="M54.6027 60.8208L58.7154 59.3204L60.2006 55.1657C60.2006 55.1657 59.6865 54.7041 59.458 54.4732C55.8023 50.7801 53.9744 45.8753 53.9744 41.0281C53.9744 36.1809 55.8023 31.276 59.458 27.5829C59.6865 27.352 59.9721 27.1212 60.2006 26.8904L58.7154 22.7357L54.6027 21.2354C54.6027 21.2354 54.1458 21.7547 53.9173 21.9855C50.2615 25.6786 45.4063 27.5252 40.6081 27.5252C35.8099 27.5252 30.9547 25.6786 27.2989 21.9855C27.0704 21.7547 26.842 21.4662 26.6135 21.2354L22.5008 22.7357L21.0156 26.8904C21.0156 26.8904 21.5297 27.352 21.7582 27.5829C25.4139 31.276 27.2418 36.1809 27.2418 41.0281C27.2418 45.8753 25.4139 50.7801 21.7582 54.4732C21.5297 54.7041 21.2441 54.9349 21.0156 55.1657L22.5008 59.3204L26.6135 60.8208C26.6135 60.8208 27.0704 60.3014 27.2989 60.0706C30.9547 56.3775 35.8099 54.5309 40.6081 54.5309C45.4634 54.5309 50.2615 56.3775 53.9173 60.0706C54.1458 60.3014 54.3742 60.5899 54.6027 60.8208Z" fill="url(#paint0_radial_4209_2)"></path>
      <path d="M18.6785 18.8694L34.3868 13.2721L0 0L13.1378 34.7382L18.6785 18.8694Z" fill="url(#paint1_radial_4209_2)"></path>
      <path d="M13.1378 47.2617L0 81.9999L34.3868 68.7856L18.6785 63.1305L13.1378 47.2617Z" fill="url(#paint2_radial_4209_2)"></path>
      <path d="M62.4856 63.1305L46.7773 68.7856L81.1641 81.9999L68.0835 47.2617L62.4856 63.1305Z" fill="url(#paint3_radial_4209_2)"></path>
      <path d="M68.0835 34.7382L81.1641 0L46.7773 13.2721L62.4856 18.8694L68.0835 34.7382Z" fill="url(#paint4_radial_4209_2)"></path>
    </symbol>
    <defs>
      <radialGradient id="paint0_radial_4209_2" cx="0" cy="0" r="1" gradientUnits="userSpaceOnUse" gradientTransform="translate(29.4752 49.4218) scale(57.2483 57.8334)">
        <stop offset="0.05" stop-color="#FFFDE5"></stop>
        <stop offset="0.14" stop-color="#FFF096"></stop>
        <stop offset="0.22" stop-color="#FDD000"></stop>
        <stop offset="0.32" stop-color="#E5A83F"></stop>
        <stop offset="0.44" stop-color="#935600"></stop>
        <stop offset="0.48" stop-color="#C4801C"></stop>
        <stop offset="0.52" stop-color="#E5A83F"></stop>
        <stop offset="0.6" stop-color="#F6AB00"></stop>
        <stop offset="0.73" stop-color="#FFD900"></stop>
        <stop offset="0.93" stop-color="#FFED61"></stop>
      </radialGradient>
      <radialGradient id="paint1_radial_4209_2" href="#paint0_radial_4209_2" gradientTransform="translate(29.5104 49.3606) scale(61.0023 61.6257)">
      </radialGradient>
      <radialGradient id="paint2_radial_4209_2" href="#paint0_radial_4209_2" gradientTransform="translate(29.5104 49.3622) scale(61.0023 61.6257)">
      </radialGradient>
      <radialGradient id="paint3_radial_4209_2" href="#paint0_radial_4209_2" gradientTransform="translate(29.5057 49.3622) scale(61.0023 61.6257)">
      </radialGradient>
      <radialGradient id="paint4_radial_4209_2" href="#paint0_radial_4209_2" gradientTransform="translate(29.5057 49.3606) scale(61.0023 61.6257)">
      </radialGradient>
    </defs>
</svg>
