<svg xmlns="http://www.w3.org/2000/svg">
    <style>
      style~use:not(:target) {display: none;}
    </style>
    <use id="BX" href="#BX-s" fill="#71bce9"/>
    <use id="UX" href="#UX-s" fill="#ee7800"/>
    <use id="CX" href="#CX-s" fill="#e4007f"/>
    <use id="expand" href="#expand-s"/>
    <defs>
      <path id="X" d="M140.835 0h-34.447l40.23 69.806 17.223-29.887L140.835 0Zm37.468 124.788 24.25 42.079H237l-41.474-71.966-17.223 29.887ZM201.306 0l-96.162 166.867h34.447L235.753 0h-34.447Z"></path>
    </defs>
    <symbol id="BX-s" viewBox="-5.5 0 248 167">
      <path d="M109.803 28.954 81.035.133H0V167h26.53l17.309-30.036H29.98V98.586h35.167l20.888 20.924-17.422 17.454H58.3L40.99 167h40.04l28.769-28.821v-37.338L93.495 84.506 109.8 68.17V28.954h.003ZM67.025 68.547H29.98V30.168h38.633l18.36 18.394L67.022 68.55l.003-.003Z"></path>
      <use href="#X"/>
    </symbol>
    <symbol id="UX-s" viewBox="0 0 248 167">
      <use href="#X" transform="translate(10.69,0)"/>
      <path d="m38.87 136.939-8.794-12.551V0H0v133.865L23.213 167h11.792l17.366-30.061h-13.5ZM82.572 0v124.388l-8.795 12.551H66.88L49.514 167h39.922l23.212-33.135V0H82.572Z"></path>
    </symbol>
    <symbol id="CX-s" viewBox="-4.5 0 248 167">
      <use href="#X" transform="translate(1.795,0)"/>
      <path d="M41.1006 136.938L29.9212 125.706V41.2938L41.1006 30.0619H69.7066L80.886 41.2938V66.7937H110.807V28.8506L82.1073 0H28.7156L0 28.8506V138.149L28.7156 167H33.5068L50.7769 136.938H41.1006 M80.8845 100.19V125.706L69.7052 136.938H65.2115L47.9414 167H82.1058L110.806 138.149V100.19H80.8845Z"></path>
    </symbol>
    <symbol id="expand-s" viewBox="0 0 82 82">
      <path fill="url(#paint0_radial_4209_2)" d="M54.6027 60.8208L58.7154 59.3204L60.2006 55.1657C60.2006 55.1657 59.6865 54.7041 59.458 54.4732C55.8023 50.7801 53.9744 45.8753 53.9744 41.0281C53.9744 36.1809 55.8023 31.276 59.458 27.5829C59.6865 27.352 59.9721 27.1212 60.2006 26.8904L58.7154 22.7357L54.6027 21.2354C54.6027 21.2354 54.1458 21.7547 53.9173 21.9855C50.2615 25.6786 45.4063 27.5252 40.6081 27.5252C35.8099 27.5252 30.9547 25.6786 27.2989 21.9855C27.0704 21.7547 26.842 21.4662 26.6135 21.2354L22.5008 22.7357L21.0156 26.8904C21.0156 26.8904 21.5297 27.352 21.7582 27.5829C25.4139 31.276 27.2418 36.1809 27.2418 41.0281C27.2418 45.8753 25.4139 50.7801 21.7582 54.4732C21.5297 54.7041 21.2441 54.9349 21.0156 55.1657L22.5008 59.3204L26.6135 60.8208C26.6135 60.8208 27.0704 60.3014 27.2989 60.0706C30.9547 56.3775 35.8099 54.5309 40.6081 54.5309C45.4634 54.5309 50.2615 56.3775 53.9173 60.0706C54.1458 60.3014 54.3742 60.5899 54.6027 60.8208Z"/>
      <path fill="url(#paint0_radial_4209_2)" d="M18.6785 18.8694L34.3868 13.2721L0 0L13.1378 34.7382L18.6785 18.8694Z"/>
      <path fill="url(#paint0_radial_4209_2)" d="M13.1378 47.2617L0 81.9999L34.3868 68.7856L18.6785 63.1305L13.1378 47.2617Z"/>
      <path fill="url(#paint0_radial_4209_2)" d="M62.4856 63.1305L46.7773 68.7856L81.1641 81.9999L68.0835 47.2617L62.4856 63.1305Z"/>
      <path fill="url(#paint0_radial_4209_2)" d="M68.0835 34.7382L81.1641 0L46.7773 13.2721L62.4856 18.8694L68.0835 34.7382Z"/>
    </symbol>
    <radialGradient id="paint0_radial_4209_2" cx="41" cy="41" r="58" gradientUnits="userSpaceOnUse">
      <stop offset="0.05" stop-color="#FFFDE5"></stop>
      <stop offset="0.14" stop-color="#FFF096"></stop>
      <stop offset="0.22" stop-color="#FDD000"></stop>
      <stop offset="0.32" stop-color="#E5A83F"></stop>
      <stop offset="0.44" stop-color="#935600"></stop>
      <stop offset="0.48" stop-color="#C4801C"></stop>
      <stop offset="0.52" stop-color="#E5A83F"></stop>
      <stop offset="0.6" stop-color="#F6AB00"></stop>
      <stop offset="0.73" stop-color="#FFD900"></stop>
      <stop offset="0.93" stop-color="#FFED61"></stop>
    </radialGradient>
</svg>
