<svg xmlns="http://www.w3.org/2000/svg" viewBox="1.5 1 28 28" width="1" height="1">
    <style>
      path:not(:target) {display:none;}
      #att {fill: #0081e3;}
      #bal {fill: #de0010;}
      #def {fill: #009f48;}
      #sta {fill: #f08200;}
    </style>
    <path id="att" d="M22.86,1.58L19.111,6.993c3.779,0.688,9.131,6.639,9.131,6.639a18.354,18.354,0,0,0-4.989-1.973c3.477,4.9-1.542,14.923-1.542,14.923l0.454-5.742-9.494,5.772s6.991-6.97,7.133-7.1a6.479,6.479,0,0,0,.18-9.232,6.614,6.614,0,0,0-4.756-2,6.758,6.758,0,0,0-.851.054l0.2-.467L22.86,1.58m-5.1,1.432s-6.991,6.969-7.133,7.1a6.478,6.478,0,0,0-.18,9.231,6.615,6.615,0,0,0,4.757,2,6.728,6.728,0,0,0,.851-0.054l-0.2.467-8.284,6.28,3.749-5.413c-3.779-.688-9.131-6.639-9.131-6.639a18.351,18.351,0,0,0,4.989,1.974C3.7,13.061,8.723,3.042,8.723,3.042L8.269,8.784l9.494-5.772M1.194,9.5l3.689,2.87a8.451,8.451,0,0,0,.574,3.679,4.382,4.382,0,0,1-1.572-1.675C3.038,13.031,1.194,9.5,1.194,9.5M15.226,10.07a4.8,4.8,0,0,1,3.448,1.451,4.7,4.7,0,0,1-.131,6.691,4.821,4.821,0,0,1-6.765-.129,4.7,4.7,0,0,1,.13-6.691,4.8,4.8,0,0,1,3.316-1.322m9.75,3.5a4.383,4.383,0,0,1,1.572,1.675c0.847,1.346,2.691,4.875,2.691,4.875l-3.689-2.871a8.449,8.449,0,0,0-.574-3.678M16.057,21.3h0.006"/>
    <path id="bal" d="M15.578,3a3.2,3.2,0,0,1,.748,6.316l-0.264,1.256c-0.171-.015-0.345-0.023-0.52-0.023H15.466c-0.124,0-.247.008-0.369,0.018l-0.264-1.25A3.2,3.2,0,0,1,15.578,3M11.254,6.912a4.264,4.264,0,0,0,.554,1.5,8.574,8.574,0,0,0-4.937,7.845c0,0.278.022,0.553,0.052,0.824A4.457,4.457,0,0,0,6.4,17.047a4.412,4.412,0,0,0-1.078.134c-0.031-.3-0.051-0.6-0.055-0.905a10.168,10.168,0,0,1,5.992-9.364M19.9,6.936a10.291,10.291,0,0,1,2.821,1.93,10.039,10.039,0,0,1,3.105,7.147,10.189,10.189,0,0,1-.052,1.15,4.382,4.382,0,0,0-1.007-.117,4.476,4.476,0,0,0-.6.041,8.652,8.652,0,0,0,.053-1.054A8.468,8.468,0,0,0,21.6,10a8.7,8.7,0,0,0-2.262-1.573,4.271,4.271,0,0,0,.563-1.5m-4.356,4.877a4.461,4.461,0,1,1,.057,8.921H15.54a4.461,4.461,0,1,1-.057-8.921h0.06M6.4,18.178a3.278,3.278,0,0,1,1.983.667l1.737-.545a5.679,5.679,0,0,0,.552,1.078L9.486,20.4a3.187,3.187,0,0,1-1.464,3.755A3.263,3.263,0,0,1,3.6,22.982a3.182,3.182,0,0,1,1.186-4.375A3.249,3.249,0,0,1,6.4,18.178m18.364,0a3.246,3.246,0,0,1,1.613.428,3.182,3.182,0,0,1,1.186,4.375,3.263,3.263,0,0,1-4.426,1.172,3.185,3.185,0,0,1-1.505-3.607l-1.266-1.093a5.689,5.689,0,0,0,.586-1.116l1.769,0.555a3.278,3.278,0,0,1,2.044-.714M20.7,23.035a4.311,4.311,0,0,0,.876,1.336,10.282,10.282,0,0,1-5.9,1.935H15.542A10.3,10.3,0,0,1,9.552,24.4a4.309,4.309,0,0,0,.887-1.327,8.7,8.7,0,0,0,5.1,1.648h0.114A8.676,8.676,0,0,0,20.7,23.035"/>
    <path id="def" d="M16.026,2.639l0.715,1.273L19.575,8.7a6.057,6.057,0,0,0-3.666-1.508L14.693,5.131A20.436,20.436,0,0,0,6.459,7.637a30.1,30.1,0,0,0,.907,5.419l0.023,0.086L6.026,15.8l-0.177-.425A28.334,28.334,0,0,1,4.056,7.045L4.038,6.287l0.618-.4A22.7,22.7,0,0,1,15.33,2.653l0.7-.014m3.128,0.413c0.4,0.084.8,0.176,1.178,0.277l-0.006-.011,0.459,0.131A22.9,22.9,0,0,1,26.247,5.8c0.085,0.051.131,0.082,0.136,0.084L27,6.287h0l-0.017.756a30.648,30.648,0,0,1-1.857,9.2l-0.041.1-0.106.028-4.542,1.194a6.5,6.5,0,0,0,1.239-2.853l1.624-.427a29.478,29.478,0,0,0,1.278-6.659A21.591,21.591,0,0,0,20.93,6.049l-1.776-3M15.574,8.6A4.912,4.912,0,0,1,20.4,13.531a4.92,4.92,0,0,1-4.764,5.063H15.571a4.913,4.913,0,0,1-4.826-4.934A4.921,4.921,0,0,1,15.51,8.6h0.064m-6.131,5.95a6.5,6.5,0,0,0,1.16,2.883L9.923,18.7a22.19,22.19,0,0,0,5.6,5.389,22.893,22.893,0,0,0,4.389-3.855l3.675-.957a35.711,35.711,0,0,1-7.44,7.286l-0.267.153H15.163L14.9,26.561a24.135,24.135,0,0,1-7.68-7.628l-0.067-.111,2.293-4.274"/>
    <path id="sta" d="M14.424,2.969a12.245,12.245,0,0,1,1.271.066,11.391,11.391,0,0,1,4.4,1.505S25.8,7.786,25.285,14.3a9.674,9.674,0,0,1-1.049,3.939,11.158,11.158,0,0,1-3.6,3.893c0.138-.029.281-0.062,0.429-0.1a8.174,8.174,0,0,0,2.649-1.814,10.087,10.087,0,0,0,2.8-6.351,11.7,11.7,0,0,0-3.877-9.3,0.286,0.286,0,0,1-.019-0.4,0.284,0.284,0,0,1,.4-0.024A12.505,12.505,0,0,1,27.3,11.775a12.1,12.1,0,0,1-.725,6.133A10.913,10.913,0,0,1,17.3,24.838s-0.142.01-.39,0.01a9.93,9.93,0,0,1-6.839-2.543c-0.168-.133-0.341-0.267-0.518-0.4,0.14,0.249.236,0.394,0.236,0.394a6.768,6.768,0,0,0,1.686,1.589,9.446,9.446,0,0,0,5.671,1.835,11.3,11.3,0,0,0,1.411-.09,11.916,11.916,0,0,0,5.515-2.23,13.431,13.431,0,0,0,1.971-1.919,0.283,0.283,0,0,1,.217-0.1,0.283,0.283,0,0,1,.22.463,12.42,12.42,0,0,1-7.731,4.566,13.009,13.009,0,0,1-2.16.189,10.511,10.511,0,0,1-2.747-.359,11.2,11.2,0,0,1-6.746-5.029,9.892,9.892,0,0,1-1.453-4.48S5.191,11.859,8.756,8.791A10.262,10.262,0,0,1,9.88,7.853c0.1-.075.21-0.146,0.313-0.216l0.1-.071a0.176,0.176,0,0,0-.051-0.006,1.276,1.276,0,0,0-.372.09A8.6,8.6,0,0,0,7.374,9.4a8.434,8.434,0,0,0-1.319,1.748A9.482,9.482,0,0,0,4.575,15.7,11.692,11.692,0,0,0,8.449,25a0.284,0.284,0,0,1-.371.43,12.5,12.5,0,0,1-4.285-7.58,12.277,12.277,0,0,1,.721-6.185l0-.008a11.2,11.2,0,0,1,4.124-5.14,10.917,10.917,0,0,1,5.811-1.756,9.435,9.435,0,0,1,4.509,1.148,9.564,9.564,0,0,1,2.374,1.632C21.358,7.561,21.381,7.58,21.4,7.6a1.994,1.994,0,0,0-.259-0.463,8.593,8.593,0,0,0-4.8-2.947,10.172,10.172,0,0,0-2.5-.308,11.432,11.432,0,0,0-8.792,4.24A0.284,0.284,0,0,1,4.61,7.773a12.4,12.4,0,0,1,9.814-4.8m1.114,18.357a6.542,6.542,0,1,0-6.53-6.539,6.541,6.541,0,0,0,6.53,6.539m0-11.133a4.593,4.593,0,0,1,.058,9.186H15.536a4.593,4.593,0,0,1-.058-9.186h0.06"/>
</svg>
